<svg width="391" height="226" viewBox="0 0 391 226" fill="none" xmlns="http://www.w3.org/2000/svg">
<g filter="url(#filter0_d)">
<rect x="22" y="17" width="347" height="182" rx="10" fill="white"/>
</g>
<g style="mix-blend-mode:multiply">
<circle cx="321" cy="169" r="14" fill="#F1F1F1"/>
</g>
<g style="mix-blend-mode:multiply">
<circle cx="339" cy="169" r="14" fill="#F1F1F1"/>
</g>
<path fill-rule="evenodd" clip-rule="evenodd" d="M66.5 68C75.6127 68 83 60.6127 83 51.5C83 49.5863 82.6742 47.7487 82.0751 46.0396L61.0396 67.0751C62.7487 67.6742 64.5863 68 66.5 68ZM53.1668 61.2217L61.2627 53.1258L51.9148 43.7779C50.6924 46.0819 50 48.7101 50 51.5C50 55.1349 51.1754 58.4952 53.1668 61.2217ZM58.7779 36.9148L68.1258 46.2627L76.2217 38.1668C73.4952 36.1754 70.1349 35 66.5 35C63.7101 35 61.0819 35.6924 58.7779 36.9148Z" fill="#FDBF5A"/>
<path d="M55.4387 40.4803L57.4804 42.522" stroke="#FDBF5A" stroke-width="2"/>
<path d="M59.8064 61.4485L57.7647 63.4902" stroke="#FDBF5A" stroke-width="2"/>
<path d="M63.446 57.5662L61.4044 59.6078" stroke="#FDBF5A" stroke-width="2"/>
<path d="M67.0859 53.6838L65.0443 55.7255" stroke="#FDBF5A" stroke-width="2"/>
<path d="M74.3652 45.9191L72.3235 47.9608" stroke="#FDBF5A" stroke-width="2"/>
<path d="M78.0049 42.0368L75.9632 44.0785" stroke="#FDBF5A" stroke-width="2"/>
<path d="M59.2207 44.2206L61.2624 46.2623" stroke="#FDBF5A" stroke-width="2"/>
<path d="M63.3457 48.3456L65.3874 50.3873" stroke="#FDBF5A" stroke-width="2"/>
<path d="M70.7256 49.8015L68.6839 51.8431" stroke="#FDBF5A" stroke-width="2"/>
<path d="M61.5 182.5H67.5V160.5H79C79.1667 159.333 78.5 156.8 74.5 156H61.5V182.5Z" fill="#E1E1E1"/>
<path d="M53 156H59V160.5H50C50 159.333 50.6 156.8 53 156Z" fill="#E1E1E1"/>
<path d="M53 182H59V177.5H50C50 178.667 50.6 181.2 53 182Z" fill="#E1E1E1"/>
<path d="M76 182H70V177.5H79C79 178.667 78.4 181.2 76 182Z" fill="#E1E1E1"/>
<path d="M50 162.5H59V167.5H50V162.5Z" fill="#E1E1E1"/>
<path d="M70 162.5H79V167.5H70V162.5Z" fill="#E1E1E1"/>
<path d="M50 169.5H59V174.5H50V169.5Z" fill="#E1E1E1"/>
<path d="M70 169.5H79V174.5H70V169.5Z" fill="#E1E1E1"/>
<defs>
<filter id="filter0_d" x="0" y="0" width="391" height="226" filterUnits="userSpaceOnUse" color-interpolation-filters="sRGB">
<feFlood flood-opacity="0" result="BackgroundImageFix"/>
<feColorMatrix in="SourceAlpha" type="matrix" values="0 0 0 0 0 0 0 0 0 0 0 0 0 0 0 0 0 0 127 0" result="hardAlpha"/>
<feMorphology radius="2" operator="dilate" in="SourceAlpha" result="effect1_dropShadow"/>
<feOffset dy="5"/>
<feGaussianBlur stdDeviation="10"/>
<feColorMatrix type="matrix" values="0 0 0 0 0 0 0 0 0 0 0 0 0 0 0 0 0 0 0.1 0"/>
<feBlend mode="normal" in2="BackgroundImageFix" result="effect1_dropShadow"/>
<feBlend mode="normal" in="SourceGraphic" in2="effect1_dropShadow" result="shape"/>
</filter>
</defs>
</svg>
